<mxfile host="Electron" agent="Mozilla/5.0 (Macintosh; Intel Mac OS X 10_15_7) AppleWebKit/537.36 (KHTML, like Gecko) draw.io/24.7.17 Chrome/128.0.6613.36 Electron/32.0.1 Safari/537.36" version="24.7.17">
  <diagram id="i5GRfdOPRl6apa89p6HY" name="ページ1">
    <mxGraphModel dx="707" dy="505" grid="1" gridSize="10" guides="1" tooltips="1" connect="1" arrows="1" fold="1" page="1" pageScale="1" pageWidth="827" pageHeight="1169" math="1" shadow="0">
      <root>
        <mxCell id="0" />
        <mxCell id="1" parent="0" />
        <mxCell id="MSyOgBv5A3lIXOGBMr79-8" style="edgeStyle=orthogonalEdgeStyle;rounded=0;orthogonalLoop=1;jettySize=auto;html=1;entryX=0;entryY=0.5;entryDx=0;entryDy=0;endArrow=none;endFill=0;" parent="1" source="4" target="MSyOgBv5A3lIXOGBMr79-4" edge="1">
          <mxGeometry relative="1" as="geometry" />
        </mxCell>
        <mxCell id="4" value="&lt;font style=&quot;font-size: 17px;&quot;&gt;11100100&lt;/font&gt;" style="rounded=0;whiteSpace=wrap;html=1;" parent="1" vertex="1">
          <mxGeometry x="240" y="280" width="80" height="40" as="geometry" />
        </mxCell>
        <mxCell id="MSyOgBv5A3lIXOGBMr79-4" value="&lt;span style=&quot;font-size: 17px;&quot;&gt;00011010&lt;/span&gt;" style="rounded=0;whiteSpace=wrap;html=1;" parent="1" vertex="1">
          <mxGeometry x="400" y="280" width="80" height="40" as="geometry" />
        </mxCell>
        <mxCell id="MSyOgBv5A3lIXOGBMr79-7" style="edgeStyle=orthogonalEdgeStyle;rounded=0;orthogonalLoop=1;jettySize=auto;html=1;exitX=1;exitY=0.5;exitDx=0;exitDy=0;entryX=0;entryY=0.5;entryDx=0;entryDy=0;endArrow=none;endFill=0;" parent="1" source="MSyOgBv5A3lIXOGBMr79-6" target="4" edge="1">
          <mxGeometry relative="1" as="geometry" />
        </mxCell>
        <mxCell id="MSyOgBv5A3lIXOGBMr79-6" value="&lt;font style=&quot;font-size: 17px;&quot;&gt;01110010&lt;/font&gt;" style="rounded=0;whiteSpace=wrap;html=1;shadow=0;glass=0;" parent="1" vertex="1">
          <mxGeometry x="80" y="280" width="80" height="40" as="geometry" />
        </mxCell>
        <mxCell id="MSyOgBv5A3lIXOGBMr79-35" style="edgeStyle=orthogonalEdgeStyle;rounded=0;orthogonalLoop=1;jettySize=auto;html=1;exitX=0;exitY=0;exitDx=40;exitDy=0;exitPerimeter=0;" parent="1" source="MSyOgBv5A3lIXOGBMr79-13" edge="1">
          <mxGeometry relative="1" as="geometry">
            <mxPoint x="199.80952380952374" y="150" as="targetPoint" />
          </mxGeometry>
        </mxCell>
        <mxCell id="7PEqNo1Nz8L6Kys8fTpG-30" style="edgeStyle=orthogonalEdgeStyle;rounded=0;orthogonalLoop=1;jettySize=auto;html=1;exitX=0;exitY=0;exitDx=40;exitDy=0;exitPerimeter=0;" edge="1" parent="1" source="MSyOgBv5A3lIXOGBMr79-13">
          <mxGeometry relative="1" as="geometry">
            <mxPoint x="199.66666666666674" y="140" as="targetPoint" />
          </mxGeometry>
        </mxCell>
        <mxCell id="MSyOgBv5A3lIXOGBMr79-13" value="" style="verticalLabelPosition=bottom;verticalAlign=top;html=1;shape=mxgraph.basic.acute_triangle;dx=0.5;fillColor=#f8cecc;strokeColor=#b85450;" parent="1" vertex="1">
          <mxGeometry x="160" y="150" width="80" height="74" as="geometry" />
        </mxCell>
        <mxCell id="MSyOgBv5A3lIXOGBMr79-15" style="edgeStyle=orthogonalEdgeStyle;rounded=0;orthogonalLoop=1;jettySize=auto;html=1;exitX=0.5;exitY=0;exitDx=0;exitDy=0;entryX=0.115;entryY=0.999;entryDx=0;entryDy=0;entryPerimeter=0;fillColor=#f8cecc;strokeColor=#b85450;" parent="1" source="7PEqNo1Nz8L6Kys8fTpG-9" target="MSyOgBv5A3lIXOGBMr79-13" edge="1">
          <mxGeometry relative="1" as="geometry">
            <Array as="points">
              <mxPoint x="100" y="290" />
              <mxPoint x="100" y="240" />
              <mxPoint x="169" y="240" />
            </Array>
          </mxGeometry>
        </mxCell>
        <mxCell id="MSyOgBv5A3lIXOGBMr79-16" style="edgeStyle=orthogonalEdgeStyle;rounded=0;orthogonalLoop=1;jettySize=auto;html=1;exitX=0.25;exitY=0;exitDx=0;exitDy=0;entryX=0.395;entryY=1.002;entryDx=0;entryDy=0;entryPerimeter=0;fillColor=#f8cecc;strokeColor=#b85450;" parent="1" source="7PEqNo1Nz8L6Kys8fTpG-10" target="MSyOgBv5A3lIXOGBMr79-13" edge="1">
          <mxGeometry relative="1" as="geometry">
            <mxPoint x="140" y="276.64" as="sourcePoint" />
            <mxPoint x="192.24" y="219.99999999999994" as="targetPoint" />
            <Array as="points">
              <mxPoint x="140" y="257" />
              <mxPoint x="192" y="257" />
            </Array>
          </mxGeometry>
        </mxCell>
        <mxCell id="MSyOgBv5A3lIXOGBMr79-17" style="edgeStyle=orthogonalEdgeStyle;rounded=0;orthogonalLoop=1;jettySize=auto;html=1;entryX=0.75;entryY=1;entryDx=0;entryDy=0;entryPerimeter=0;fillColor=#f8cecc;strokeColor=#b85450;exitX=0.5;exitY=0;exitDx=0;exitDy=0;" parent="1" source="7PEqNo1Nz8L6Kys8fTpG-11" target="MSyOgBv5A3lIXOGBMr79-13" edge="1">
          <mxGeometry relative="1" as="geometry" />
        </mxCell>
        <mxCell id="MSyOgBv5A3lIXOGBMr79-19" style="edgeStyle=orthogonalEdgeStyle;rounded=0;orthogonalLoop=1;jettySize=auto;html=1;exitX=0.25;exitY=0;exitDx=0;exitDy=0;entryX=0.89;entryY=0.993;entryDx=0;entryDy=0;entryPerimeter=0;fillColor=#f8cecc;strokeColor=#b85450;" parent="1" source="7PEqNo1Nz8L6Kys8fTpG-12" target="MSyOgBv5A3lIXOGBMr79-13" edge="1">
          <mxGeometry relative="1" as="geometry">
            <Array as="points">
              <mxPoint x="300" y="240" />
              <mxPoint x="231" y="240" />
            </Array>
          </mxGeometry>
        </mxCell>
        <mxCell id="MSyOgBv5A3lIXOGBMr79-33" style="edgeStyle=orthogonalEdgeStyle;rounded=0;orthogonalLoop=1;jettySize=auto;html=1;exitX=0;exitY=0;exitDx=40;exitDy=0;exitPerimeter=0;" parent="1" source="MSyOgBv5A3lIXOGBMr79-20" edge="1">
          <mxGeometry relative="1" as="geometry">
            <mxPoint x="359.80952380952374" y="440" as="targetPoint" />
          </mxGeometry>
        </mxCell>
        <mxCell id="MSyOgBv5A3lIXOGBMr79-20" value="" style="verticalLabelPosition=bottom;verticalAlign=top;html=1;shape=mxgraph.basic.acute_triangle;dx=0.5;flipV=1;fillColor=#dae8fc;strokeColor=#6c8ebf;" parent="1" vertex="1">
          <mxGeometry x="320" y="363" width="80" height="60" as="geometry" />
        </mxCell>
        <mxCell id="MSyOgBv5A3lIXOGBMr79-22" style="edgeStyle=orthogonalEdgeStyle;rounded=0;orthogonalLoop=1;jettySize=auto;html=1;exitX=0.75;exitY=1;exitDx=0;exitDy=0;entryX=0.093;entryY=1.007;entryDx=0;entryDy=0;entryPerimeter=0;fillColor=#dae8fc;strokeColor=#6c8ebf;" parent="1" source="7PEqNo1Nz8L6Kys8fTpG-14" target="MSyOgBv5A3lIXOGBMr79-20" edge="1">
          <mxGeometry relative="1" as="geometry">
            <Array as="points">
              <mxPoint x="260" y="310" />
              <mxPoint x="260" y="350" />
              <mxPoint x="327" y="350" />
            </Array>
          </mxGeometry>
        </mxCell>
        <mxCell id="MSyOgBv5A3lIXOGBMr79-23" style="edgeStyle=orthogonalEdgeStyle;rounded=0;orthogonalLoop=1;jettySize=auto;html=1;entryX=0.234;entryY=1.01;entryDx=0;entryDy=0;entryPerimeter=0;fillColor=#dae8fc;strokeColor=#6c8ebf;exitX=0.5;exitY=1;exitDx=0;exitDy=0;" parent="1" source="7PEqNo1Nz8L6Kys8fTpG-13" target="MSyOgBv5A3lIXOGBMr79-20" edge="1">
          <mxGeometry relative="1" as="geometry" />
        </mxCell>
        <mxCell id="MSyOgBv5A3lIXOGBMr79-27" style="edgeStyle=orthogonalEdgeStyle;rounded=0;orthogonalLoop=1;jettySize=auto;html=1;exitX=0.5;exitY=1;exitDx=0;exitDy=0;entryX=0.897;entryY=0.99;entryDx=0;entryDy=0;entryPerimeter=0;fillColor=#dae8fc;strokeColor=#6c8ebf;" parent="1" source="7PEqNo1Nz8L6Kys8fTpG-16" target="MSyOgBv5A3lIXOGBMr79-20" edge="1">
          <mxGeometry relative="1" as="geometry">
            <Array as="points">
              <mxPoint x="460" y="310" />
              <mxPoint x="460" y="350" />
              <mxPoint x="392" y="350" />
            </Array>
          </mxGeometry>
        </mxCell>
        <mxCell id="MSyOgBv5A3lIXOGBMr79-28" value="$$e$$" style="text;html=1;align=center;verticalAlign=middle;resizable=0;points=[];autosize=1;strokeColor=none;fillColor=none;" parent="1" vertex="1">
          <mxGeometry x="170" y="270" width="60" height="30" as="geometry" />
        </mxCell>
        <mxCell id="MSyOgBv5A3lIXOGBMr79-29" value="$$f$$" style="text;html=1;align=center;verticalAlign=middle;resizable=0;points=[];autosize=1;strokeColor=none;fillColor=none;" parent="1" vertex="1">
          <mxGeometry x="335" y="270" width="50" height="30" as="geometry" />
        </mxCell>
        <mxCell id="MSyOgBv5A3lIXOGBMr79-32" style="edgeStyle=orthogonalEdgeStyle;rounded=0;orthogonalLoop=1;jettySize=auto;html=1;exitX=0.75;exitY=1;exitDx=0;exitDy=0;entryX=0.616;entryY=1.001;entryDx=0;entryDy=0;entryPerimeter=0;fillColor=#dae8fc;strokeColor=#6c8ebf;" parent="1" source="7PEqNo1Nz8L6Kys8fTpG-15" target="MSyOgBv5A3lIXOGBMr79-20" edge="1">
          <mxGeometry relative="1" as="geometry">
            <Array as="points">
              <mxPoint x="420" y="310" />
              <mxPoint x="420" y="330" />
              <mxPoint x="369" y="330" />
            </Array>
          </mxGeometry>
        </mxCell>
        <mxCell id="MSyOgBv5A3lIXOGBMr79-30" value="$$V^{\pi_u,\pi_v,\pi_f}(C_e;r)$$" style="text;html=1;align=center;verticalAlign=middle;resizable=0;points=[];autosize=1;strokeColor=none;fillColor=none;fontSize=12;" parent="1" vertex="1">
          <mxGeometry x="30" y="169" width="190" height="30" as="geometry" />
        </mxCell>
        <mxCell id="7PEqNo1Nz8L6Kys8fTpG-5" value="$$\pi_u$$" style="text;html=1;align=center;verticalAlign=middle;resizable=0;points=[];autosize=1;strokeColor=none;fillColor=none;" vertex="1" parent="1">
          <mxGeometry x="80" y="270" width="80" height="30" as="geometry" />
        </mxCell>
        <mxCell id="7PEqNo1Nz8L6Kys8fTpG-6" value="$$\pi_v$$" style="text;html=1;align=center;verticalAlign=middle;resizable=0;points=[];autosize=1;strokeColor=none;fillColor=none;" vertex="1" parent="1">
          <mxGeometry x="240" y="269" width="80" height="30" as="geometry" />
        </mxCell>
        <mxCell id="7PEqNo1Nz8L6Kys8fTpG-7" value="$$\pi_w$$" style="text;html=1;align=center;verticalAlign=middle;resizable=0;points=[];autosize=1;strokeColor=none;fillColor=none;" vertex="1" parent="1">
          <mxGeometry x="400" y="270" width="80" height="30" as="geometry" />
        </mxCell>
        <mxCell id="7PEqNo1Nz8L6Kys8fTpG-9" value="" style="rounded=1;whiteSpace=wrap;html=1;fillColor=#f8cecc;strokeColor=#b85450;opacity=40;" vertex="1" parent="1">
          <mxGeometry x="92" y="290" width="10" height="20" as="geometry" />
        </mxCell>
        <mxCell id="7PEqNo1Nz8L6Kys8fTpG-10" value="" style="rounded=1;whiteSpace=wrap;html=1;fillColor=#f8cecc;strokeColor=#b85450;opacity=40;" vertex="1" parent="1">
          <mxGeometry x="137" y="290" width="10" height="20" as="geometry" />
        </mxCell>
        <mxCell id="7PEqNo1Nz8L6Kys8fTpG-11" value="" style="rounded=1;whiteSpace=wrap;html=1;fillColor=#f8cecc;strokeColor=#b85450;opacity=40;" vertex="1" parent="1">
          <mxGeometry x="251" y="290" width="10" height="20" as="geometry" />
        </mxCell>
        <mxCell id="7PEqNo1Nz8L6Kys8fTpG-12" value="" style="rounded=1;whiteSpace=wrap;html=1;fillColor=#f8cecc;strokeColor=#b85450;opacity=40;" vertex="1" parent="1">
          <mxGeometry x="297" y="290" width="10" height="20" as="geometry" />
        </mxCell>
        <mxCell id="7PEqNo1Nz8L6Kys8fTpG-13" value="" style="rounded=1;whiteSpace=wrap;html=1;fillColor=#dae8fc;strokeColor=#6c8ebf;opacity=40;" vertex="1" parent="1">
          <mxGeometry x="278" y="290" width="10" height="20" as="geometry" />
        </mxCell>
        <mxCell id="7PEqNo1Nz8L6Kys8fTpG-14" value="" style="rounded=1;whiteSpace=wrap;html=1;fillColor=#dae8fc;strokeColor=#6c8ebf;opacity=40;" vertex="1" parent="1">
          <mxGeometry x="251" y="290" width="10" height="20" as="geometry" />
        </mxCell>
        <mxCell id="7PEqNo1Nz8L6Kys8fTpG-15" value="" style="rounded=1;whiteSpace=wrap;html=1;fillColor=#dae8fc;strokeColor=#6c8ebf;opacity=40;" vertex="1" parent="1">
          <mxGeometry x="411.5" y="290" width="10" height="20" as="geometry" />
        </mxCell>
        <mxCell id="7PEqNo1Nz8L6Kys8fTpG-16" value="" style="rounded=1;whiteSpace=wrap;html=1;fillColor=#dae8fc;strokeColor=#6c8ebf;opacity=40;" vertex="1" parent="1">
          <mxGeometry x="458" y="290" width="10" height="20" as="geometry" />
        </mxCell>
        <mxCell id="7PEqNo1Nz8L6Kys8fTpG-17" value="00010011111101010101010" style="rounded=1;whiteSpace=wrap;html=1;fontSize=13;" vertex="1" parent="1">
          <mxGeometry x="240" y="150" width="180" height="20" as="geometry" />
        </mxCell>
        <mxCell id="7PEqNo1Nz8L6Kys8fTpG-18" value="$$\pi_e$$" style="text;html=1;align=center;verticalAlign=middle;resizable=0;points=[];autosize=1;strokeColor=none;fillColor=none;" vertex="1" parent="1">
          <mxGeometry x="290" y="125" width="80" height="30" as="geometry" />
        </mxCell>
        <mxCell id="7PEqNo1Nz8L6Kys8fTpG-20" style="edgeStyle=orthogonalEdgeStyle;rounded=0;orthogonalLoop=1;jettySize=auto;html=1;entryX=0;entryY=0;entryDx=60;entryDy=37;entryPerimeter=0;strokeWidth=0.5;fillColor=#d5e8d4;strokeColor=#82b366;" edge="1" parent="1" source="7PEqNo1Nz8L6Kys8fTpG-19" target="MSyOgBv5A3lIXOGBMr79-13">
          <mxGeometry relative="1" as="geometry">
            <Array as="points">
              <mxPoint x="296" y="187" />
            </Array>
          </mxGeometry>
        </mxCell>
        <mxCell id="7PEqNo1Nz8L6Kys8fTpG-19" value="" style="rounded=1;whiteSpace=wrap;html=1;fillColor=#d5e8d4;strokeColor=#82b366;opacity=40;" vertex="1" parent="1">
          <mxGeometry x="292" y="151" width="8" height="18" as="geometry" />
        </mxCell>
        <mxCell id="7PEqNo1Nz8L6Kys8fTpG-21" style="edgeStyle=orthogonalEdgeStyle;rounded=0;orthogonalLoop=1;jettySize=auto;html=1;strokeWidth=0.5;fillColor=#d5e8d4;strokeColor=#82b366;entryX=0.863;entryY=0.681;entryDx=0;entryDy=0;entryPerimeter=0;" edge="1" parent="1" source="7PEqNo1Nz8L6Kys8fTpG-22" target="MSyOgBv5A3lIXOGBMr79-13">
          <mxGeometry relative="1" as="geometry">
            <mxPoint x="320" y="220" as="targetPoint" />
            <Array as="points">
              <mxPoint x="335" y="200" />
              <mxPoint x="320" y="200" />
            </Array>
          </mxGeometry>
        </mxCell>
        <mxCell id="7PEqNo1Nz8L6Kys8fTpG-22" value="" style="rounded=1;whiteSpace=wrap;html=1;fillColor=#d5e8d4;strokeColor=#82b366;opacity=40;" vertex="1" parent="1">
          <mxGeometry x="331" y="151" width="8" height="18" as="geometry" />
        </mxCell>
        <mxCell id="7PEqNo1Nz8L6Kys8fTpG-23" value="11110011111101010101010" style="rounded=1;whiteSpace=wrap;html=1;fontSize=13;" vertex="1" parent="1">
          <mxGeometry x="80" y="383" width="180" height="20" as="geometry" />
        </mxCell>
        <mxCell id="7PEqNo1Nz8L6Kys8fTpG-24" value="$$\pi_f$$" style="text;html=1;align=center;verticalAlign=middle;resizable=0;points=[];autosize=1;strokeColor=none;fillColor=none;" vertex="1" parent="1">
          <mxGeometry x="135" y="358" width="70" height="30" as="geometry" />
        </mxCell>
        <mxCell id="7PEqNo1Nz8L6Kys8fTpG-27" style="edgeStyle=orthogonalEdgeStyle;rounded=0;orthogonalLoop=1;jettySize=auto;html=1;entryX=0.38;entryY=0.223;entryDx=0;entryDy=0;entryPerimeter=0;fillColor=#d5e8d4;strokeColor=#82b366;strokeWidth=0.5;" edge="1" parent="1" source="7PEqNo1Nz8L6Kys8fTpG-25" target="MSyOgBv5A3lIXOGBMr79-20">
          <mxGeometry relative="1" as="geometry">
            <mxPoint x="330" y="430" as="targetPoint" />
            <Array as="points">
              <mxPoint x="154" y="410" />
              <mxPoint x="340" y="410" />
            </Array>
          </mxGeometry>
        </mxCell>
        <mxCell id="7PEqNo1Nz8L6Kys8fTpG-25" value="" style="rounded=1;whiteSpace=wrap;html=1;fillColor=#d5e8d4;strokeColor=#82b366;opacity=40;" vertex="1" parent="1">
          <mxGeometry x="150" y="384" width="8" height="18" as="geometry" />
        </mxCell>
        <mxCell id="7PEqNo1Nz8L6Kys8fTpG-26" value="" style="rounded=1;whiteSpace=wrap;html=1;fillColor=#d5e8d4;strokeColor=#82b366;opacity=40;" vertex="1" parent="1">
          <mxGeometry x="206" y="384" width="8" height="18" as="geometry" />
        </mxCell>
        <mxCell id="7PEqNo1Nz8L6Kys8fTpG-28" style="edgeStyle=orthogonalEdgeStyle;rounded=0;orthogonalLoop=1;jettySize=auto;html=1;exitX=0.5;exitY=0;exitDx=0;exitDy=0;entryX=0.125;entryY=0.717;entryDx=0;entryDy=0;entryPerimeter=0;fillColor=#d5e8d4;strokeColor=#82b366;strokeWidth=0.5;" edge="1" parent="1" source="7PEqNo1Nz8L6Kys8fTpG-26" target="MSyOgBv5A3lIXOGBMr79-20">
          <mxGeometry relative="1" as="geometry">
            <Array as="points">
              <mxPoint x="210" y="380" />
            </Array>
          </mxGeometry>
        </mxCell>
        <mxCell id="7PEqNo1Nz8L6Kys8fTpG-29" value="$$V^{\pi_u,\pi_v,\pi_f}(C_f;r&#39;)$$" style="text;html=1;align=center;verticalAlign=middle;resizable=0;points=[];autosize=1;strokeColor=none;fillColor=none;fontSize=12;" vertex="1" parent="1">
          <mxGeometry x="335" y="383" width="190" height="30" as="geometry" />
        </mxCell>
      </root>
    </mxGraphModel>
  </diagram>
</mxfile>
